<mxfile host="app.diagrams.net" modified="2021-01-12T06:30:58.154Z" agent="5.0 (Macintosh; Intel Mac OS X 11_0_0) AppleWebKit/537.36 (KHTML, like Gecko) Chrome/86.0.4240.198 Safari/537.36" etag="SMnLmZNKjF98wIArG3lR" version="14.1.3" type="github">
  <diagram id="k_wTACcViYUILCFQEpmP" name="第 1 页">
    <mxGraphModel dx="946" dy="614" grid="1" gridSize="10" guides="1" tooltips="1" connect="1" arrows="1" fold="1" page="1" pageScale="1" pageWidth="827" pageHeight="1169" math="0" shadow="0">
      <root>
        <mxCell id="0" />
        <mxCell id="1" parent="0" />
        <mxCell id="L_48_6vLquwi3i-rMnB2-2" value="" style="rounded=1;whiteSpace=wrap;html=1;fillColor=#f5f5f5;strokeColor=#666666;fontColor=#333333;" vertex="1" parent="1">
          <mxGeometry x="390" y="680" width="550" height="220" as="geometry" />
        </mxCell>
        <mxCell id="L_48_6vLquwi3i-rMnB2-3" value="Mybatis配置文件" style="text;html=1;strokeColor=none;fillColor=none;align=center;verticalAlign=middle;whiteSpace=wrap;rounded=0;" vertex="1" parent="1">
          <mxGeometry x="554" y="690" width="95" height="20" as="geometry" />
        </mxCell>
        <mxCell id="L_48_6vLquwi3i-rMnB2-4" value="SqlMapConfig.xml" style="rounded=0;whiteSpace=wrap;html=1;" vertex="1" parent="1">
          <mxGeometry x="510" y="720" width="170" height="40" as="geometry" />
        </mxCell>
        <mxCell id="L_48_6vLquwi3i-rMnB2-7" style="edgeStyle=orthogonalEdgeStyle;rounded=0;orthogonalLoop=1;jettySize=auto;html=1;exitX=1;exitY=0.5;exitDx=0;exitDy=0;entryX=0;entryY=0.5;entryDx=0;entryDy=0;" edge="1" parent="1" source="L_48_6vLquwi3i-rMnB2-5" target="L_48_6vLquwi3i-rMnB2-4">
          <mxGeometry relative="1" as="geometry" />
        </mxCell>
        <mxCell id="L_48_6vLquwi3i-rMnB2-5" value="核心配置文件" style="text;html=1;strokeColor=none;fillColor=none;align=center;verticalAlign=middle;whiteSpace=wrap;rounded=0;" vertex="1" parent="1">
          <mxGeometry x="414" y="730" width="76" height="20" as="geometry" />
        </mxCell>
        <mxCell id="L_48_6vLquwi3i-rMnB2-13" style="edgeStyle=orthogonalEdgeStyle;rounded=0;orthogonalLoop=1;jettySize=auto;html=1;exitX=0.25;exitY=0;exitDx=0;exitDy=0;entryX=0.912;entryY=1;entryDx=0;entryDy=0;entryPerimeter=0;" edge="1" parent="1" source="L_48_6vLquwi3i-rMnB2-8" target="L_48_6vLquwi3i-rMnB2-4">
          <mxGeometry relative="1" as="geometry" />
        </mxCell>
        <mxCell id="L_48_6vLquwi3i-rMnB2-14" value="关联映射配置文件" style="edgeLabel;html=1;align=center;verticalAlign=middle;resizable=0;points=[];" vertex="1" connectable="0" parent="L_48_6vLquwi3i-rMnB2-13">
          <mxGeometry x="-0.1501" y="1" relative="1" as="geometry">
            <mxPoint as="offset" />
          </mxGeometry>
        </mxCell>
        <mxCell id="L_48_6vLquwi3i-rMnB2-8" value="" style="rounded=0;whiteSpace=wrap;html=1;" vertex="1" parent="1">
          <mxGeometry x="590" y="800" width="300" height="80" as="geometry" />
        </mxCell>
        <mxCell id="L_48_6vLquwi3i-rMnB2-9" value="mapper1.xml" style="rounded=0;whiteSpace=wrap;html=1;fillColor=#f5f5f5;strokeColor=#666666;fontColor=#333333;" vertex="1" parent="1">
          <mxGeometry x="619.48" y="820" width="115" height="40" as="geometry" />
        </mxCell>
        <mxCell id="L_48_6vLquwi3i-rMnB2-10" value="mapper2.xml" style="rounded=0;whiteSpace=wrap;html=1;fillColor=#f5f5f5;strokeColor=#666666;fontColor=#333333;" vertex="1" parent="1">
          <mxGeometry x="760" y="820" width="115" height="40" as="geometry" />
        </mxCell>
        <mxCell id="L_48_6vLquwi3i-rMnB2-12" style="edgeStyle=orthogonalEdgeStyle;rounded=0;orthogonalLoop=1;jettySize=auto;html=1;exitX=1;exitY=0.5;exitDx=0;exitDy=0;entryX=0;entryY=0.5;entryDx=0;entryDy=0;" edge="1" parent="1" source="L_48_6vLquwi3i-rMnB2-11" target="L_48_6vLquwi3i-rMnB2-8">
          <mxGeometry relative="1" as="geometry">
            <mxPoint x="510" y="810" as="targetPoint" />
          </mxGeometry>
        </mxCell>
        <mxCell id="L_48_6vLquwi3i-rMnB2-11" value="映射配置文件" style="text;html=1;strokeColor=none;fillColor=none;align=center;verticalAlign=middle;whiteSpace=wrap;rounded=0;" vertex="1" parent="1">
          <mxGeometry x="414" y="830" width="76" height="20" as="geometry" />
        </mxCell>
        <mxCell id="L_48_6vLquwi3i-rMnB2-16" style="edgeStyle=orthogonalEdgeStyle;rounded=0;orthogonalLoop=1;jettySize=auto;html=1;exitX=0;exitY=0.5;exitDx=0;exitDy=0;entryX=1;entryY=0.5;entryDx=0;entryDy=0;" edge="1" parent="1" source="L_48_6vLquwi3i-rMnB2-15" target="L_48_6vLquwi3i-rMnB2-4">
          <mxGeometry relative="1" as="geometry" />
        </mxCell>
        <mxCell id="L_48_6vLquwi3i-rMnB2-17" value="关联配置" style="edgeLabel;html=1;align=center;verticalAlign=middle;resizable=0;points=[];" vertex="1" connectable="0" parent="L_48_6vLquwi3i-rMnB2-16">
          <mxGeometry x="-0.1478" relative="1" as="geometry">
            <mxPoint x="1" as="offset" />
          </mxGeometry>
        </mxCell>
        <mxCell id="L_48_6vLquwi3i-rMnB2-15" value="properties 文件:数据库信息" style="rounded=0;whiteSpace=wrap;html=1;fillColor=#f5f5f5;strokeColor=#666666;fontColor=#333333;" vertex="1" parent="1">
          <mxGeometry x="757.5" y="720" width="160" height="40" as="geometry" />
        </mxCell>
        <mxCell id="L_48_6vLquwi3i-rMnB2-22" style="edgeStyle=orthogonalEdgeStyle;rounded=0;orthogonalLoop=1;jettySize=auto;html=1;exitX=1;exitY=0.5;exitDx=0;exitDy=0;" edge="1" parent="1" source="L_48_6vLquwi3i-rMnB2-18" target="L_48_6vLquwi3i-rMnB2-21">
          <mxGeometry relative="1" as="geometry" />
        </mxCell>
        <mxCell id="L_48_6vLquwi3i-rMnB2-18" value="SqlSessionFactory 工厂对象" style="rounded=0;whiteSpace=wrap;html=1;fillColor=#f5f5f5;strokeColor=#666666;fontColor=#333333;" vertex="1" parent="1">
          <mxGeometry x="390" y="980" width="550" height="70" as="geometry" />
        </mxCell>
        <mxCell id="L_48_6vLquwi3i-rMnB2-19" value="" style="shape=flexArrow;endArrow=classic;html=1;entryX=0.42;entryY=-0.043;entryDx=0;entryDy=0;entryPerimeter=0;" edge="1" parent="1">
          <mxGeometry width="50" height="50" relative="1" as="geometry">
            <mxPoint x="652" y="908" as="sourcePoint" />
            <mxPoint x="652" y="974.99" as="targetPoint" />
            <Array as="points">
              <mxPoint x="652" y="948" />
              <mxPoint x="652" y="958" />
            </Array>
          </mxGeometry>
        </mxCell>
        <mxCell id="L_48_6vLquwi3i-rMnB2-20" value="&lt;pre style=&quot;background-color: #2b2b2b ; color: #a9b7c6 ; font-family: &amp;#34;jetbrains mono&amp;#34; , monospace ; font-size: 10.5pt&quot;&gt;Resources.&lt;span style=&quot;font-style: italic&quot;&gt;getResourceAsStream&lt;/span&gt;(&lt;span style=&quot;color: #6a8759&quot;&gt;&quot;SqlMapConfig.xml&quot;&lt;/span&gt;)&lt;span style=&quot;color: #cc7832&quot;&gt;;&lt;/span&gt;&lt;/pre&gt;" style="text;html=1;strokeColor=none;fillColor=none;align=center;verticalAlign=middle;whiteSpace=wrap;rounded=0;" vertex="1" parent="1">
          <mxGeometry x="456.98" y="930" width="440" height="20" as="geometry" />
        </mxCell>
        <mxCell id="L_48_6vLquwi3i-rMnB2-30" style="edgeStyle=orthogonalEdgeStyle;rounded=0;orthogonalLoop=1;jettySize=auto;html=1;exitX=0.5;exitY=1;exitDx=0;exitDy=0;entryX=0.5;entryY=0;entryDx=0;entryDy=0;" edge="1" parent="1" source="L_48_6vLquwi3i-rMnB2-21" target="L_48_6vLquwi3i-rMnB2-29">
          <mxGeometry relative="1" as="geometry" />
        </mxCell>
        <mxCell id="L_48_6vLquwi3i-rMnB2-31" value="将映射配置文件，存储在一个表中" style="edgeLabel;html=1;align=center;verticalAlign=middle;resizable=0;points=[];" vertex="1" connectable="0" parent="L_48_6vLquwi3i-rMnB2-30">
          <mxGeometry x="-0.3429" relative="1" as="geometry">
            <mxPoint as="offset" />
          </mxGeometry>
        </mxCell>
        <mxCell id="L_48_6vLquwi3i-rMnB2-21" value="new SqlSessionFactoryBuilder().build(in)&lt;br&gt;1. 进行了初始化配置：使用dom4j解析了配置文件，将映射配置文件中的配置封装了一个一个的MappedStatement对象，将这些mappedStatement对象封装成map集合。&lt;br&gt;2.创建了SqlSessionFactory工厂对象" style="rounded=0;whiteSpace=wrap;html=1;" vertex="1" parent="1">
          <mxGeometry x="990" y="860" width="360" height="190" as="geometry" />
        </mxCell>
        <mxCell id="L_48_6vLquwi3i-rMnB2-24" value="SqlSession 会话对象" style="rounded=0;whiteSpace=wrap;html=1;fillColor=#f5f5f5;strokeColor=#666666;fontColor=#333333;" vertex="1" parent="1">
          <mxGeometry x="390" y="1130" width="550" height="70" as="geometry" />
        </mxCell>
        <mxCell id="L_48_6vLquwi3i-rMnB2-26" value="" style="shape=flexArrow;endArrow=classic;html=1;entryX=0.42;entryY=-0.043;entryDx=0;entryDy=0;entryPerimeter=0;" edge="1" parent="1">
          <mxGeometry width="50" height="50" relative="1" as="geometry">
            <mxPoint x="650" y="1060" as="sourcePoint" />
            <mxPoint x="650" y="1126.99" as="targetPoint" />
            <Array as="points">
              <mxPoint x="650" y="1100" />
              <mxPoint x="650" y="1110" />
            </Array>
          </mxGeometry>
        </mxCell>
        <mxCell id="L_48_6vLquwi3i-rMnB2-27" value="openSession()" style="text;html=1;strokeColor=none;fillColor=none;align=center;verticalAlign=middle;whiteSpace=wrap;rounded=0;" vertex="1" parent="1">
          <mxGeometry x="680" y="1080" width="110" height="20" as="geometry" />
        </mxCell>
        <mxCell id="L_48_6vLquwi3i-rMnB2-29" value="" style="rounded=0;whiteSpace=wrap;html=1;fillColor=#f5f5f5;strokeColor=#666666;fontColor=#333333;" vertex="1" parent="1">
          <mxGeometry x="995" y="1120" width="350" height="340" as="geometry" />
        </mxCell>
        <mxCell id="L_48_6vLquwi3i-rMnB2-32" value="key" style="rounded=0;whiteSpace=wrap;html=1;" vertex="1" parent="1">
          <mxGeometry x="995" y="1120" width="175" height="60" as="geometry" />
        </mxCell>
        <mxCell id="L_48_6vLquwi3i-rMnB2-33" value="value" style="rounded=0;whiteSpace=wrap;html=1;" vertex="1" parent="1">
          <mxGeometry x="1170" y="1120" width="175" height="60" as="geometry" />
        </mxCell>
        <mxCell id="L_48_6vLquwi3i-rMnB2-34" value="userMapper.findAll" style="rounded=0;whiteSpace=wrap;html=1;" vertex="1" parent="1">
          <mxGeometry x="995" y="1180" width="175" height="60" as="geometry" />
        </mxCell>
        <mxCell id="L_48_6vLquwi3i-rMnB2-35" value="MappedStatement对象" style="rounded=0;whiteSpace=wrap;html=1;" vertex="1" parent="1">
          <mxGeometry x="1170" y="1180" width="175" height="60" as="geometry" />
        </mxCell>
        <mxCell id="L_48_6vLquwi3i-rMnB2-36" value="userMapper.save" style="rounded=0;whiteSpace=wrap;html=1;" vertex="1" parent="1">
          <mxGeometry x="995" y="1240" width="175" height="60" as="geometry" />
        </mxCell>
        <mxCell id="L_48_6vLquwi3i-rMnB2-37" value="MappedStatement对象" style="rounded=0;whiteSpace=wrap;html=1;" vertex="1" parent="1">
          <mxGeometry x="1170" y="1240" width="175" height="60" as="geometry" />
        </mxCell>
        <mxCell id="L_48_6vLquwi3i-rMnB2-38" value="&lt;h1&gt;&lt;br&gt;&lt;/h1&gt;&lt;div&gt;SqlSession会话对象，本身并不会直接操作数据，而是委派给执行器来操作 sqlSession.selectList(userMapper.findAll)&lt;/div&gt;" style="text;html=1;strokeColor=none;fillColor=none;spacing=5;spacingTop=-20;whiteSpace=wrap;overflow=hidden;rounded=0;" vertex="1" parent="1">
          <mxGeometry x="390" y="1169" width="240" height="125" as="geometry" />
        </mxCell>
        <mxCell id="L_48_6vLquwi3i-rMnB2-39" value="" style="shape=flexArrow;endArrow=classic;html=1;entryX=0.42;entryY=-0.043;entryDx=0;entryDy=0;entryPerimeter=0;" edge="1" parent="1">
          <mxGeometry width="50" height="50" relative="1" as="geometry">
            <mxPoint x="649" y="1210" as="sourcePoint" />
            <mxPoint x="649" y="1276.99" as="targetPoint" />
            <Array as="points">
              <mxPoint x="649" y="1250" />
              <mxPoint x="649" y="1260" />
            </Array>
          </mxGeometry>
        </mxCell>
        <mxCell id="L_48_6vLquwi3i-rMnB2-41" style="rounded=0;orthogonalLoop=1;jettySize=auto;html=1;exitX=1;exitY=0.25;exitDx=0;exitDy=0;entryX=0;entryY=0.75;entryDx=0;entryDy=0;" edge="1" parent="1" source="L_48_6vLquwi3i-rMnB2-40" target="L_48_6vLquwi3i-rMnB2-34">
          <mxGeometry relative="1" as="geometry" />
        </mxCell>
        <mxCell id="L_48_6vLquwi3i-rMnB2-40" value="Executor 执行器 底层就是JDBC的实现" style="rounded=0;whiteSpace=wrap;html=1;fillColor=#f5f5f5;strokeColor=#666666;fontColor=#333333;" vertex="1" parent="1">
          <mxGeometry x="390" y="1300" width="550" height="70" as="geometry" />
        </mxCell>
        <mxCell id="L_48_6vLquwi3i-rMnB2-46" style="edgeStyle=none;rounded=0;orthogonalLoop=1;jettySize=auto;html=1;exitX=0.5;exitY=1;exitDx=0;exitDy=0;entryX=0.5;entryY=0;entryDx=0;entryDy=0;entryPerimeter=0;" edge="1" parent="1" source="L_48_6vLquwi3i-rMnB2-42" target="L_48_6vLquwi3i-rMnB2-45">
          <mxGeometry relative="1" as="geometry" />
        </mxCell>
        <mxCell id="L_48_6vLquwi3i-rMnB2-59" style="edgeStyle=none;rounded=0;orthogonalLoop=1;jettySize=auto;html=1;exitX=1;exitY=0.5;exitDx=0;exitDy=0;" edge="1" parent="1" source="L_48_6vLquwi3i-rMnB2-42" target="L_48_6vLquwi3i-rMnB2-53">
          <mxGeometry relative="1" as="geometry" />
        </mxCell>
        <mxCell id="L_48_6vLquwi3i-rMnB2-42" value="MappedStatement 对象" style="rounded=0;whiteSpace=wrap;html=1;fillColor=#f5f5f5;strokeColor=#666666;fontColor=#333333;" vertex="1" parent="1">
          <mxGeometry x="380" y="1460" width="550" height="70" as="geometry" />
        </mxCell>
        <mxCell id="L_48_6vLquwi3i-rMnB2-43" value="" style="shape=flexArrow;endArrow=classic;html=1;entryX=0.42;entryY=-0.043;entryDx=0;entryDy=0;entryPerimeter=0;" edge="1" parent="1">
          <mxGeometry width="50" height="50" relative="1" as="geometry">
            <mxPoint x="649" y="1380" as="sourcePoint" />
            <mxPoint x="649" y="1446.99" as="targetPoint" />
            <Array as="points">
              <mxPoint x="649" y="1420" />
              <mxPoint x="649" y="1430" />
            </Array>
          </mxGeometry>
        </mxCell>
        <mxCell id="L_48_6vLquwi3i-rMnB2-44" style="edgeStyle=none;rounded=0;orthogonalLoop=1;jettySize=auto;html=1;exitX=0.25;exitY=1;exitDx=0;exitDy=0;entryX=1;entryY=0;entryDx=0;entryDy=0;" edge="1" parent="1" source="L_48_6vLquwi3i-rMnB2-35" target="L_48_6vLquwi3i-rMnB2-42">
          <mxGeometry relative="1" as="geometry" />
        </mxCell>
        <mxCell id="L_48_6vLquwi3i-rMnB2-45" value="数据库" style="shape=cylinder3;whiteSpace=wrap;html=1;boundedLbl=1;backgroundOutline=1;size=15;fillColor=#f5f5f5;strokeColor=#666666;fontColor=#333333;" vertex="1" parent="1">
          <mxGeometry x="590" y="1590" width="130" height="90" as="geometry" />
        </mxCell>
        <mxCell id="L_48_6vLquwi3i-rMnB2-52" style="edgeStyle=none;rounded=0;orthogonalLoop=1;jettySize=auto;html=1;exitX=1;exitY=0.5;exitDx=0;exitDy=0;entryX=0;entryY=0.5;entryDx=0;entryDy=0;" edge="1" parent="1" source="L_48_6vLquwi3i-rMnB2-47" target="L_48_6vLquwi3i-rMnB2-42">
          <mxGeometry relative="1" as="geometry" />
        </mxCell>
        <mxCell id="L_48_6vLquwi3i-rMnB2-47" value="" style="rounded=0;whiteSpace=wrap;html=1;" vertex="1" parent="1">
          <mxGeometry x="150" y="1405" width="140" height="185" as="geometry" />
        </mxCell>
        <mxCell id="L_48_6vLquwi3i-rMnB2-48" value="输入映射" style="text;html=1;strokeColor=none;fillColor=none;align=center;verticalAlign=middle;whiteSpace=wrap;rounded=0;" vertex="1" parent="1">
          <mxGeometry x="195" y="1420" width="50" height="20" as="geometry" />
        </mxCell>
        <mxCell id="L_48_6vLquwi3i-rMnB2-49" value="Map" style="rounded=0;whiteSpace=wrap;html=1;fillColor=#f5f5f5;strokeColor=#666666;fontColor=#333333;" vertex="1" parent="1">
          <mxGeometry x="170" y="1440" width="100" height="40" as="geometry" />
        </mxCell>
        <mxCell id="L_48_6vLquwi3i-rMnB2-50" value="基础类型" style="rounded=0;whiteSpace=wrap;html=1;fillColor=#f5f5f5;strokeColor=#666666;fontColor=#333333;" vertex="1" parent="1">
          <mxGeometry x="170" y="1490" width="100" height="40" as="geometry" />
        </mxCell>
        <mxCell id="L_48_6vLquwi3i-rMnB2-51" value="POJO" style="rounded=0;whiteSpace=wrap;html=1;fillColor=#f5f5f5;strokeColor=#666666;fontColor=#333333;" vertex="1" parent="1">
          <mxGeometry x="170" y="1540" width="100" height="40" as="geometry" />
        </mxCell>
        <mxCell id="L_48_6vLquwi3i-rMnB2-53" value="" style="rounded=0;whiteSpace=wrap;html=1;" vertex="1" parent="1">
          <mxGeometry x="1012.5" y="1490" width="137.5" height="240" as="geometry" />
        </mxCell>
        <mxCell id="L_48_6vLquwi3i-rMnB2-54" value="输出映射" style="text;html=1;strokeColor=none;fillColor=none;align=center;verticalAlign=middle;whiteSpace=wrap;rounded=0;" vertex="1" parent="1">
          <mxGeometry x="1057.5" y="1505" width="52.5" height="20" as="geometry" />
        </mxCell>
        <mxCell id="L_48_6vLquwi3i-rMnB2-55" value="Map" style="rounded=0;whiteSpace=wrap;html=1;fillColor=#f5f5f5;strokeColor=#666666;fontColor=#333333;" vertex="1" parent="1">
          <mxGeometry x="1032.5" y="1525" width="100" height="40" as="geometry" />
        </mxCell>
        <mxCell id="L_48_6vLquwi3i-rMnB2-56" value="基础类型" style="rounded=0;whiteSpace=wrap;html=1;fillColor=#f5f5f5;strokeColor=#666666;fontColor=#333333;" vertex="1" parent="1">
          <mxGeometry x="1032.5" y="1575" width="100" height="40" as="geometry" />
        </mxCell>
        <mxCell id="L_48_6vLquwi3i-rMnB2-57" value="POJO" style="rounded=0;whiteSpace=wrap;html=1;fillColor=#f5f5f5;strokeColor=#666666;fontColor=#333333;" vertex="1" parent="1">
          <mxGeometry x="1032.5" y="1625" width="100" height="40" as="geometry" />
        </mxCell>
        <mxCell id="L_48_6vLquwi3i-rMnB2-58" value="List" style="rounded=0;whiteSpace=wrap;html=1;fillColor=#f5f5f5;strokeColor=#666666;fontColor=#333333;" vertex="1" parent="1">
          <mxGeometry x="1033.75" y="1680" width="100" height="40" as="geometry" />
        </mxCell>
      </root>
    </mxGraphModel>
  </diagram>
</mxfile>
